<svg width="16" height="17" viewBox="0 0 16 17" fill="none" xmlns="http://www.w3.org/2000/svg">
<path d="M13.5 4.09961H2.5M6.5 7.09961V11.0996M9.5 7.09961V11.0996M12.5 4.09961V13.5996C12.5 13.7322 12.4473 13.8594 12.3536 13.9532C12.2598 14.0469 12.1326 14.0996 12 14.0996H4C3.86739 14.0996 3.74021 14.0469 3.64645 13.9532C3.55268 13.8594 3.5 13.7322 3.5 13.5996V4.09961M10.5 4.09961V3.09961C10.5 2.83439 10.3946 2.58004 10.2071 2.3925C10.0196 2.20497 9.76522 2.09961 9.5 2.09961H6.5C6.23478 2.09961 5.98043 2.20497 5.79289 2.3925C5.60536 2.58004 5.5 2.83439 5.5 3.09961V4.09961" stroke="#D04C60" stroke-linecap="round" stroke-linejoin="round"/>
</svg>