<svg width="16" height="16" viewBox="0 0 16 16" fill="none" xmlns="http://www.w3.org/2000/svg">
<path d="M5.75049 6.25V4C5.75049 3.40326 5.98754 2.83097 6.4095 2.40901C6.83146 1.98705 7.40375 1.75 8.00049 1.75C8.59723 1.75 9.16952 1.98705 9.59148 2.40901C10.0134 2.83097 10.2505 3.40326 10.2505 4V6.25M3.00049 6.25H13.0005C13.2766 6.25 13.5005 6.47386 13.5005 6.75V13.75C13.5005 14.0261 13.2766 14.25 13.0005 14.25H3.00049C2.72435 14.25 2.50049 14.0261 2.50049 13.75V6.75C2.50049 6.47386 2.72435 6.25 3.00049 6.25Z" stroke="#CBD9E8" stroke-linecap="round" stroke-linejoin="round"/>
</svg>
