<svg width="16" height="16" viewBox="0 0 16 16" fill="none" xmlns="http://www.w3.org/2000/svg">
<path d="M13.5004 4.50001H2.50043C2.22428 4.50001 2.00043 4.72387 2.00043 5.00001V13C2.00043 13.2761 2.22428 13.5 2.50043 13.5H13.5004C13.7766 13.5 14.0004 13.2761 14.0004 13V5.00001C14.0004 4.72387 13.7766 4.50001 13.5004 4.50001Z" stroke="#CBD9E8" stroke-linecap="round" stroke-linejoin="round"/>
<path d="M10.5 6.5V3C10.5 2.86739 10.4473 2.74021 10.3536 2.64645C10.2598 2.55268 10.1326 2.5 10 2.5H6C5.86739 2.5 5.74021 2.55268 5.64645 2.64645C5.55268 2.74021 5.5 2.86739 5.5 3V6.5" stroke="#CBD9E8" stroke-linecap="round" stroke-linejoin="round"/>
</svg>
