<svg width="16" height="16" viewBox="0 0 16 16" fill="none" xmlns="http://www.w3.org/2000/svg">
<path d="M15 13.5H14.5V7C14.5 6.73478 14.3946 6.48043 14.2071 6.29289C14.0196 6.10536 13.7652 6 13.5 6H9.5V3C9.5 2.73478 9.39464 2.48043 9.20711 2.29289C9.01957 2.10536 8.76522 2 8.5 2H2.5C2.23478 2 1.98043 2.10536 1.79289 2.29289C1.60536 2.48043 1.5 2.73478 1.5 3V13.5H1C0.867392 13.5 0.740215 13.5527 0.646447 13.6464C0.552678 13.7402 0.5 13.8674 0.5 14C0.5 14.1326 0.552678 14.2598 0.646447 14.3536C0.740215 14.4473 0.867392 14.5 1 14.5H15C15.1326 14.5 15.2598 14.4473 15.3536 14.3536C15.4473 14.2598 15.5 14.1326 15.5 14C15.5 13.8674 15.4473 13.7402 15.3536 13.6464C15.2598 13.5527 15.1326 13.5 15 13.5ZM7.66667 8.33333C7.66667 8.46594 7.61399 8.59312 7.52022 8.68689C7.42645 8.78066 7.29927 8.83333 7.16667 8.83333H3.83333C3.70073 8.83333 3.57355 8.78066 3.47978 8.68689C3.38601 8.59312 3.33333 8.46594 3.33333 8.33333C3.33333 8.20073 3.38601 8.07355 3.47978 7.97978C3.57355 7.88601 3.70073 7.83333 3.83333 7.83333H7.16667C7.29927 7.83333 7.42645 7.88601 7.52022 7.97978C7.61399 8.07355 7.66667 8.20073 7.66667 8.33333ZM3.83333 5.16667H7.16667C7.29927 5.16667 7.42645 5.21935 7.52022 5.31311C7.61399 5.40688 7.66667 5.53406 7.66667 5.66667C7.66667 5.79927 7.61399 5.92645 7.52022 6.02022C7.42645 6.11399 7.29927 6.16667 7.16667 6.16667H3.83333C3.70073 6.16667 3.57355 6.11399 3.47978 6.02022C3.38601 5.92645 3.33333 5.79927 3.33333 5.66667C3.33333 5.53406 3.38601 5.40688 3.47978 5.31311C3.57355 5.21935 3.70073 5.16667 3.83333 5.16667ZM3.83333 10.5H7.16667C7.29927 10.5 7.42645 10.5527 7.52022 10.6464C7.61399 10.7402 7.66667 10.8674 7.66667 11C7.66667 11.1326 7.61399 11.2598 7.52022 11.3536C7.42645 11.4473 7.29927 11.5 7.16667 11.5H3.83333C3.70073 11.5 3.57355 11.4473 3.47978 11.3536C3.38601 11.2598 3.33333 11.1326 3.33333 11C3.33333 10.8674 3.38601 10.7402 3.47978 10.6464C3.57355 10.5527 3.70073 10.5 3.83333 10.5ZM9.5 7H13.5V13.5H9.5V7Z" fill="white"/>
</svg>
