<svg width="16" height="16" viewBox="0 0 16 16" fill="none" xmlns="http://www.w3.org/2000/svg">
<path fill-rule="evenodd" clip-rule="evenodd" d="M10.1604 9.36698C11.267 8.65547 12 7.41334 12 6C12 3.79086 10.2091 2 8 2C5.79086 2 4 3.79086 4 6C4 7.41334 4.73301 8.65547 5.83959 9.36698C5.28906 9.55826 4.75827 9.82257 4.25846 10.1558C3.12747 10.9098 2.19671 11.9884 1.55278 13.2764C1.47529 13.4314 1.48358 13.6155 1.57468 13.7629C1.66579 13.9103 1.82672 14 2 14H14C14.1733 14 14.3342 13.9103 14.4253 13.7629C14.5164 13.6155 14.5247 13.4314 14.4472 13.2764C13.8033 11.9884 12.8725 10.9098 11.7415 10.1558C11.2417 9.82257 10.7109 9.55826 10.1604 9.36698Z" fill="white"/>
</svg>
