<svg width="16" height="16" viewBox="0 0 16 16" fill="none" xmlns="http://www.w3.org/2000/svg">
<path d="M3.51251 6.5C3.51168 5.90724 3.62812 5.32017 3.85515 4.7726C4.08217 4.22504 4.41529 3.7278 4.83531 3.30952C5.25532 2.89125 5.75394 2.5602 6.30245 2.33546C6.85095 2.11071 7.4385 1.9967 8.03126 2C10.5063 2.01875 12.4875 4.075 12.4875 6.55625V7C12.4875 9.2375 12.9563 10.5375 13.3688 11.25C13.4126 11.3259 13.4357 11.4119 13.4357 11.4996C13.4358 11.5872 13.4129 11.6733 13.3692 11.7492C13.3255 11.8252 13.2627 11.8883 13.1869 11.9324C13.1111 11.9764 13.0251 11.9997 12.9375 12H3.06251C2.97489 11.9997 2.88889 11.9764 2.81313 11.9324C2.73736 11.8883 2.67449 11.8252 2.63082 11.7492C2.58714 11.6733 2.56419 11.5872 2.56427 11.4996C2.56435 11.4119 2.58745 11.3259 2.63126 11.25C3.04376 10.5375 3.51251 9.2375 3.51251 7V6.5Z" stroke="#CBD9E8" stroke-linecap="round" stroke-linejoin="round"/>
<path d="M6 12V12.5C6 13.0304 6.21071 13.5391 6.58579 13.9142C6.96086 14.2893 7.46957 14.5 8 14.5C8.53043 14.5 9.03914 14.2893 9.41421 13.9142C9.78929 13.5391 10 13.0304 10 12.5V12" stroke="#CBD9E8" stroke-linecap="round" stroke-linejoin="round"/>
</svg>
