<svg width="16" height="16" viewBox="0 0 16 16" fill="none" xmlns="http://www.w3.org/2000/svg">
<path d="M6 3H4C3.44772 3 3 3.44772 3 4V6C3 6.55228 3.44772 7 4 7H6C6.55228 7 7 6.55228 7 6V4C7 3.44772 6.55228 3 6 3Z" fill="#CBD9E8" stroke="#CBD9E8" stroke-linecap="round" stroke-linejoin="round"/>
<path d="M12 3H10C9.44772 3 9 3.44772 9 4V6C9 6.55228 9.44772 7 10 7H12C12.5523 7 13 6.55228 13 6V4C13 3.44772 12.5523 3 12 3Z" fill="#CBD9E8" stroke="#CBD9E8" stroke-linecap="round" stroke-linejoin="round"/>
<path d="M6 9H4C3.44772 9 3 9.44772 3 10V12C3 12.5523 3.44772 13 4 13H6C6.55228 13 7 12.5523 7 12V10C7 9.44772 6.55228 9 6 9Z" fill="#CBD9E8" stroke="#CBD9E8" stroke-linecap="round" stroke-linejoin="round"/>
<path d="M12 9H10C9.44772 9 9 9.44772 9 10V12C9 12.5523 9.44772 13 10 13H12C12.5523 13 13 12.5523 13 12V10C13 9.44772 12.5523 9 12 9Z" fill="#CBD9E8" stroke="#CBD9E8" stroke-linecap="round" stroke-linejoin="round"/>
</svg>
