<svg width="16" height="16" viewBox="0 0 16 16" fill="none" xmlns="http://www.w3.org/2000/svg">
<path d="M8 14C11.3137 14 14 11.3137 14 8C14 4.68629 11.3137 2 8 2C4.68629 2 2 4.68629 2 8C2 11.3137 4.68629 14 8 14Z" stroke="white" stroke-width="1.5" stroke-linecap="round" stroke-linejoin="round"/>
<path d="M8 11.8125C8.31066 11.8125 8.5625 11.5607 8.5625 11.25C8.5625 10.9393 8.31066 10.6875 8 10.6875C7.68934 10.6875 7.4375 10.9393 7.4375 11.25C7.4375 11.5607 7.68934 11.8125 8 11.8125Z" fill="white"/>
<path d="M8 9.5V9C8.39556 9 8.78224 8.8827 9.11114 8.66294C9.44004 8.44318 9.69638 8.13082 9.84776 7.76537C9.99913 7.39992 10.0387 6.99778 9.96157 6.60982C9.8844 6.22186 9.69392 5.86549 9.41421 5.58579C9.13451 5.30608 8.77814 5.1156 8.39018 5.03843C8.00222 4.96126 7.60009 5.00087 7.23463 5.15224C6.86918 5.30362 6.55682 5.55996 6.33706 5.88886C6.1173 6.21776 6 6.60444 6 7" stroke="white" stroke-width="1.5" stroke-linecap="round" stroke-linejoin="round"/>
</svg>
