<svg xmlns="http://www.w3.org/2000/svg" xml:space="preserve" fill-rule="evenodd" stroke-linejoin="round" stroke-miterlimit="2" clip-rule="evenodd" viewBox="0 0 533 242">
  <path fill-rule="nonzero" d="M143.559 151.968h8.938l13.247 38.969 13.182-38.969h8.81v46.107h-5.916v-27.201c0-.965 0-2.508.065-4.694.064-2.187.064-4.502.064-7.01l-13.183 38.905h-6.173l-13.247-38.905v1.415c0 1.158 0 2.83.064 5.144.065 2.315.13 4.052.13 5.145v27.2h-5.981v-46.106Z" fill="white" />
  <path fill-rule="nonzero" d="M190.501 151.968h7.267l13.247 22.121 13.247-22.12h7.33l-17.426 27.522v18.584h-6.238V179.49l-17.427-27.523Z" fill="white"/>
  <path fill-rule="nonzero" d="M266.242 193.328c-3.472 3.15-7.845 4.759-13.247 4.759-6.687 0-11.896-2.123-15.69-6.431-3.794-4.244-5.723-10.16-5.723-17.62 0-8.102 2.186-14.275 6.494-18.712 3.794-3.794 8.553-5.66 14.405-5.66 7.78 0 13.44 2.509 17.04 7.653 1.994 2.83 3.087 5.723 3.216 8.617h-9.646c-.643-2.186-1.479-3.923-2.443-5.016-1.737-1.993-4.373-3.022-7.846-3.022-3.472 0-6.237 1.415-8.295 4.244-1.993 2.83-3.022 6.88-3.022 12.025 0 5.209 1.029 9.131 3.215 11.704 2.122 2.572 4.887 3.858 8.167 3.858 3.408 0 5.98-1.093 7.78-3.344.965-1.157 1.801-2.958 2.444-5.337h9.582c-.836 5.016-3.023 9.131-6.43 12.282Z" fill="white"/>
  <path fill-rule="nonzero" d="M297.312 198.087c-6.623 0-11.703-1.801-15.176-5.402-4.694-4.437-7.073-10.803-7.073-19.099 0-8.488 2.379-14.854 7.073-19.098 3.473-3.601 8.553-5.402 15.176-5.402 6.56 0 11.64 1.8 15.112 5.402 4.694 4.244 7.01 10.61 7.01 19.098 0 8.296-2.316 14.662-7.01 19.099-3.473 3.601-8.553 5.402-15.112 5.402Zm9.131-12.411c2.187-2.83 3.344-6.881 3.344-12.09 0-5.208-1.157-9.195-3.408-12.025-2.25-2.83-5.273-4.244-9.067-4.244-3.858 0-6.945 1.415-9.195 4.244-2.315 2.83-3.409 6.817-3.409 12.025 0 5.209 1.094 9.26 3.409 12.09 2.25 2.83 5.337 4.244 9.195 4.244 3.794 0 6.816-1.415 9.131-4.244Z" fill="white"/>
  <path fill-rule="nonzero" d="M332.476 196.8h-9.002v-46.3h14.018l8.424 36.397 8.36-36.396h13.954v46.3h-9.067v-31.317c0-.9.064-2.122.064-3.794v-3.73l-8.745 38.84h-9.389l-8.681-38.84v3.73c.064 1.672.064 2.894.064 3.794V196.8Z" fill="white"/>
  <path fill-rule="nonzero" d="M393.63 180.145h-9.838V196.8h-9.582v-46.3h20.128c4.63 0 8.36 1.223 11.125 3.602 2.765 2.38 4.115 6.109 4.115 11.06 0 5.466-1.35 9.325-4.115 11.575-2.766 2.315-6.688 3.408-11.833 3.408Zm4.502-9.645c1.286-1.094 1.865-2.83 1.865-5.273 0-2.38-.58-4.116-1.865-5.145-1.286-1.029-3.023-1.543-5.338-1.543h-9.002v13.633h9.002c2.315 0 4.052-.515 5.338-1.672Z" fill="white"/>
  <path fill-rule="nonzero" d="M436.265 187.283H419.16l-3.151 9.517h-10.16l16.526-46.3h10.932l16.397 46.3h-10.481l-2.958-9.517Zm-2.701-7.974-5.788-18.198-5.98 18.198h11.768Z" fill="white"/>
  <path fill-rule="nonzero" d="M489.777 196.8h-9.646l-18.905-32.86v32.86h-9.003v-46.3h10.096l18.455 32.346v-32.345h9.003v46.3Z" fill="white"/>
  <path fill-rule="nonzero" d="m532.937 150.5-15.434 28.874V196.8h-9.71v-17.426L491.781 150.5h11.382l9.646 20.192 9.196-20.192h10.932Z" fill="white"/>
  <path fill-rule="nonzero" d="M146.203 211.07c.074-1.326.295-2.32.7-2.946.773-1.104 2.246-1.657 4.381-1.657.221 0 .405.037.626.037.221 0 .479.037.737.037v2.946c-.332 0-.553-.037-.737-.037h-.405c-.994 0-1.583.258-1.767.773-.184.516-.295 1.804-.295 3.866h3.204v2.578h-3.24v16.606h-3.204v-16.606h-2.65v-2.578h2.65v-3.02Z" fill="white"/>
  <path fill-rule="nonzero" d="M153.893 214.016h3.056v3.313c.257-.626.883-1.436 1.877-2.356.958-.92 2.1-1.4 3.388-1.4.074 0 .147 0 .294.037.148 0 .405.037.737.074v3.424a2.888 2.888 0 0 0-.516-.073c-.184-.037-.331-.037-.552-.037-1.62 0-2.872.515-3.756 1.583a5.554 5.554 0 0 0-1.288 3.609v11.083h-3.24v-19.257Z" fill="white"/>
  <path fill-rule="nonzero" d="M172.229 213.574c1.362 0 2.688.331 3.977.957 1.288.663 2.246 1.473 2.945 2.504.626.957 1.068 2.099 1.289 3.387.184.884.294 2.32.294 4.271h-14.138c.073 1.952.552 3.498 1.399 4.677.847 1.178 2.209 1.767 4.013 1.767 1.694 0 3.02-.552 4.05-1.657.553-.663.958-1.4 1.215-2.246h3.167c-.074.7-.331 1.51-.81 2.356a8.337 8.337 0 0 1-1.62 2.136c-.958.957-2.173 1.62-3.645 1.952-.774.184-1.657.294-2.615.294-2.43 0-4.455-.884-6.112-2.614-1.657-1.768-2.504-4.198-2.504-7.327 0-3.093.847-5.634 2.541-7.549 1.657-1.914 3.866-2.908 6.554-2.908Zm5.155 8.542c-.11-1.4-.442-2.54-.92-3.388-.884-1.546-2.357-2.32-4.42-2.32-1.509 0-2.724.553-3.755 1.62-.994 1.069-1.546 2.431-1.583 4.088h10.678Z" fill="white"/>
  <path fill-rule="nonzero" d="M190.866 213.574c1.363 0 2.688.331 3.977.957 1.288.663 2.246 1.473 2.945 2.504.626.957 1.068 2.099 1.29 3.387.183.884.294 2.32.294 4.271h-14.14c.074 1.952.553 3.498 1.4 4.677.847 1.178 2.21 1.767 4.013 1.767 1.694 0 3.02-.552 4.05-1.657.553-.663.958-1.4 1.216-2.246h3.166c-.074.7-.331 1.51-.81 2.356a8.337 8.337 0 0 1-1.62 2.136c-.957.957-2.172 1.62-3.645 1.952-.773.184-1.657.294-2.614.294-2.43 0-4.456-.884-6.113-2.614-1.657-1.768-2.503-4.198-2.503-7.327 0-3.093.846-5.634 2.54-7.549 1.657-1.914 3.866-2.908 6.554-2.908Zm5.155 8.542c-.11-1.4-.442-2.54-.92-3.388-.884-1.546-2.357-2.32-4.419-2.32-1.51 0-2.725.553-3.756 1.62-.994 1.069-1.546 2.431-1.583 4.088h10.678Z" fill="white"/>
  <path fill-rule="nonzero" d="M201.587 206.872h3.24v26.4h-3.24z" fill="white"/>
  <path fill-rule="nonzero" d="M215.474 231.174c2.136 0 3.609-.81 4.419-2.43.773-1.62 1.178-3.425 1.178-5.413 0-1.804-.258-3.277-.847-4.382-.92-1.767-2.504-2.65-4.713-2.65-1.988 0-3.424.736-4.308 2.245-.92 1.51-1.362 3.351-1.362 5.487 0 2.025.442 3.755 1.362 5.118.884 1.362 2.32 2.025 4.271 2.025Zm.11-17.71c2.505 0 4.603.81 6.297 2.466 1.73 1.657 2.578 4.087 2.578 7.327 0 3.093-.737 5.67-2.247 7.696-1.51 2.025-3.866 3.02-7.032 3.02-2.651 0-4.75-.885-6.333-2.689-1.547-1.804-2.32-4.197-2.32-7.217 0-3.24.81-5.817 2.467-7.732 1.62-1.914 3.83-2.872 6.59-2.872Z" fill="white"/>
  <path fill-rule="nonzero" d="M233.265 213.684c1.51 0 2.835.368 3.94 1.105.625.405 1.251 1.03 1.877 1.84v-2.43h2.983v17.527c0 2.43-.332 4.345-1.068 5.78-1.326 2.615-3.866 3.904-7.622 3.904-2.062 0-3.792-.442-5.228-1.4-1.4-.92-2.21-2.356-2.357-4.344h3.277c.147.847.479 1.51.958 1.988.736.737 1.877 1.068 3.424 1.068 2.504 0 4.124-.847 4.897-2.614.442-1.031.663-2.872.626-5.523-.663.994-1.436 1.73-2.357 2.209-.883.479-2.098.7-3.608.7-2.062 0-3.903-.737-5.45-2.21-1.583-1.473-2.356-3.94-2.356-7.327 0-3.24.773-5.744 2.357-7.548 1.583-1.841 3.46-2.725 5.707-2.725Zm5.817 9.868c0-2.357-.478-4.124-1.473-5.302-.994-1.142-2.246-1.73-3.755-1.73-2.283 0-3.83 1.067-4.676 3.203-.442 1.141-.663 2.65-.663 4.492 0 2.172.442 3.829 1.325 4.934.884 1.141 2.062 1.73 3.535 1.73 2.357 0 3.977-1.068 4.934-3.166.516-1.179.773-2.578.773-4.161Z" fill="white"/>
  <path fill-rule="nonzero" d="M252.746 231.174c2.135 0 3.608-.81 4.418-2.43.773-1.62 1.178-3.425 1.178-5.413 0-1.804-.257-3.277-.847-4.382-.92-1.767-2.503-2.65-4.712-2.65-1.989 0-3.425.736-4.308 2.245-.921 1.51-1.363 3.351-1.363 5.487 0 2.025.442 3.755 1.363 5.118.883 1.362 2.32 2.025 4.27 2.025Zm.11-17.71c2.504 0 4.603.81 6.296 2.466 1.731 1.657 2.578 4.087 2.578 7.327 0 3.093-.737 5.67-2.246 7.696-1.51 2.025-3.866 3.02-7.033 3.02-2.65 0-4.75-.885-6.333-2.689-1.546-1.804-2.32-4.197-2.32-7.217 0-3.24.81-5.817 2.467-7.732 1.62-1.914 3.83-2.872 6.591-2.872Z" fill="white"/>
  <path fill-rule="nonzero" d="M264.497 229.37h3.756v3.903h-3.756z" fill="white"/>
  <path fill-rule="nonzero" d="M272.113 214.016h3.203v2.724c.774-.92 1.473-1.62 2.1-2.062 1.067-.736 2.282-1.104 3.644-1.104 1.51 0 2.762.405 3.682 1.141.553.442 1.031 1.068 1.436 1.915.737-1.031 1.584-1.804 2.541-2.283.994-.516 2.062-.773 3.277-.773 2.577 0 4.345.957 5.302 2.835.479.994.737 2.356.737 4.05v12.814h-3.351v-13.366c0-1.289-.331-2.173-.957-2.651-.663-.479-1.436-.737-2.357-.737-1.289 0-2.356.442-3.277 1.289-.92.847-1.399 2.283-1.399 4.271v11.194h-3.277v-12.556c0-1.326-.147-2.283-.479-2.872-.478-.884-1.399-1.363-2.724-1.363-1.252 0-2.357.48-3.351 1.436-.994.958-1.51 2.652-1.51 5.155v10.2h-3.24v-19.257Z" fill="white"/>
  <path fill-rule="nonzero" d="M308.97 213.574c1.363 0 2.688.331 3.977.957 1.288.663 2.246 1.473 2.945 2.504.626.957 1.068 2.099 1.29 3.387.183.884.294 2.32.294 4.271h-14.14c.074 1.952.553 3.498 1.4 4.677.847 1.178 2.21 1.767 4.013 1.767 1.694 0 3.02-.552 4.05-1.657.553-.663.958-1.4 1.216-2.246h3.166c-.074.7-.331 1.51-.81 2.356a8.337 8.337 0 0 1-1.62 2.136c-.957.957-2.172 1.62-3.645 1.952-.773.184-1.657.294-2.614.294-2.43 0-4.456-.884-6.113-2.614-1.657-1.768-2.503-4.198-2.503-7.327 0-3.093.846-5.634 2.54-7.549 1.657-1.914 3.866-2.908 6.554-2.908Zm5.155 8.542c-.11-1.4-.442-2.54-.92-3.388-.884-1.546-2.357-2.32-4.419-2.32-1.51 0-2.725.553-3.756 1.62-.994 1.069-1.546 2.431-1.583 4.088h10.678Z" fill="white"/>
  <path d="M115.766 222.877c-57.8 0-104.652-46.853-104.652-104.644C11.114 60.468 58 13.581 115.766 13.581c57.79 0 104.643 46.853 104.643 104.652H177.24c0-33.956-27.526-61.482-61.474-61.482-33.94 0-61.483 27.543-61.483 61.482 0 33.949 27.526 61.475 61.483 61.475v43.169Z" fill="white"/>
  <path d="M100.033 235.404a4.074 4.074 0 0 0 4.584-3.48 4.06 4.06 0 0 0-3.472-4.587 4.069 4.069 0 0 0-4.594 3.47c-.309 2.224 1.248 4.28 3.482 4.597Zm-16.499-3.569c2.147.643 4.42-.593 5.058-2.748.639-2.155-.6-4.42-2.756-5.062a4.082 4.082 0 0 0-5.058 2.749 4.076 4.076 0 0 0 2.756 5.061Zm-15.783-5.971c2.031.95 4.459.06 5.406-1.977a4.07 4.07 0 0 0-1.972-5.408 4.069 4.069 0 0 0-5.406 1.967 4.08 4.08 0 0 0 1.972 5.418Zm-14.728-8.235a4.09 4.09 0 0 0 5.647-1.157 4.078 4.078 0 0 0-1.16-5.645 4.07 4.07 0 0 0-5.638 1.157 4.086 4.086 0 0 0 1.15 5.645Zm-13.356-10.291a4.059 4.059 0 0 0 5.745-.327 4.06 4.06 0 0 0-.33-5.743 4.06 4.06 0 0 0-5.744.326 4.06 4.06 0 0 0 .33 5.744Zm-11.74-12.09a4.074 4.074 0 0 0 5.734.503 4.074 4.074 0 0 0-5.242-6.238 4.064 4.064 0 0 0-.492 5.734Zm-9.903-13.634a4.076 4.076 0 0 0 5.609 1.305 4.08 4.08 0 0 0 1.305-5.605 4.07 4.07 0 0 0-6.915 4.3Zm-7.873-14.898c.91 2.056 3.318 2.996 5.368 2.086a4.08 4.08 0 0 0 2.089-5.368 4.083 4.083 0 0 0-5.368-2.086 4.072 4.072 0 0 0-2.089 5.368ZM4.465 150.86c.61 2.165 2.862 3.43 5.02 2.817a4.071 4.071 0 0 0 2.823-5.022 4.08 4.08 0 0 0-5.02-2.817 4.076 4.076 0 0 0-2.823 5.022Zm-3.395-16.5a4.081 4.081 0 0 0 4.575 3.5 4.074 4.074 0 0 0 3.5-4.577 4.081 4.081 0 0 0-4.574-3.5 4.074 4.074 0 0 0-3.5 4.577ZM.007 117.563a4.08 4.08 0 0 0 4.052 4.093 4.073 4.073 0 0 0 .039-8.146 4.072 4.072 0 0 0-4.091 4.053ZM230.89 105.62a4.068 4.068 0 0 0-4.468-3.629 4.068 4.068 0 0 0-3.626 4.469 4.075 4.075 0 0 0 4.468 3.628 4.074 4.074 0 0 0 3.626-4.468ZM1.264 100.767a4.072 4.072 0 0 0 8.056 1.176 4.079 4.079 0 0 0-3.443-4.617 4.064 4.064 0 0 0-4.613 3.44Zm226.725-11.735c-.541-2.185-2.756-3.51-4.942-2.976a4.08 4.08 0 0 0-2.969 4.933V91a4.085 4.085 0 0 0 4.942 2.966 4.08 4.08 0 0 0 2.97-4.933ZM4.842 84.306c-.629 2.165.61 4.43 2.766 5.052a4.066 4.066 0 0 0 5.048-2.758A4.065 4.065 0 0 0 9.9 81.548a4.08 4.08 0 0 0-5.058 2.758Zm217.934-11.3a4.081 4.081 0 0 0-5.309-2.243 4.073 4.073 0 0 0-2.234 5.308 4.079 4.079 0 0 0 5.3 2.244 4.086 4.086 0 0 0 2.243-5.308ZM10.712 68.519a4.074 4.074 0 0 0 7.418 3.372 4.074 4.074 0 0 0-2.021-5.388 4.07 4.07 0 0 0-5.397 2.016ZM215.35 57.881a4.074 4.074 0 0 0-5.56-1.473 4.072 4.072 0 0 0-1.47 5.566c1.121 1.947 3.616 2.6 5.56 1.473a4.067 4.067 0 0 0 1.47-5.566ZM18.76 53.709c-1.21 1.898-.658 4.42 1.237 5.625 1.896 1.216 4.41.653 5.629-1.235a4.084 4.084 0 0 0-1.238-5.626 4.087 4.087 0 0 0-5.628 1.236Zm187.103-9.747a4.064 4.064 0 0 0-5.716-.673 4.082 4.082 0 0 0-.667 5.724 4.071 4.071 0 0 0 6.383-5.051ZM28.816 40.195a4.073 4.073 0 0 0 .426 5.744c1.712 1.463 4.284 1.275 5.744-.435a4.06 4.06 0 0 0-.425-5.734 4.073 4.073 0 0 0-5.745.425Zm165.673-8.67a4.065 4.065 0 0 0-5.754.148 4.066 4.066 0 0 0 .155 5.754 4.065 4.065 0 0 0 5.754-.148 4.066 4.066 0 0 0-.155-5.754ZM40.702 28.243a4.062 4.062 0 0 0-.397 5.744c1.47 1.69 4.043 1.868 5.745.395a4.071 4.071 0 0 0 .387-5.744 4.05 4.05 0 0 0-5.735-.395Zm140.75-7.405a4.074 4.074 0 0 0-5.676.979 4.072 4.072 0 0 0 6.654 4.696 4.071 4.071 0 0 0-.977-5.675ZM54.174 18.11a4.072 4.072 0 0 0-1.218 5.625c1.218 1.888 3.743 2.442 5.628 1.226a4.072 4.072 0 0 0 1.219-5.625 4.068 4.068 0 0 0-5.629-1.226Zm112.822-5.962a4.089 4.089 0 0 0-5.474 1.8 4.084 4.084 0 0 0 1.799 5.476 4.084 4.084 0 0 0 5.473-1.809 4.084 4.084 0 0 0-1.798-5.467Zm-98.006-2.105c-2.04.929-2.959 3.341-2.03 5.388a4.08 4.08 0 0 0 5.386 2.036 4.07 4.07 0 0 0 2.031-5.388c-.919-2.046-3.336-2.956-5.387-2.036Zm82.416-4.36a4.076 4.076 0 0 0-5.145 2.59 4.067 4.067 0 0 0 2.592 5.14 4.068 4.068 0 0 0 5.145-2.59c.706-2.125-.455-4.428-2.592-5.14ZM84.84 4.249a4.083 4.083 0 0 0-2.805 5.032 4.077 4.077 0 0 0 5.03 2.808 4.083 4.083 0 0 0 2.804-5.032A4.077 4.077 0 0 0 84.84 4.25Zm50.182-2.64a4.055 4.055 0 0 0-4.69 3.323 4.056 4.056 0 0 0 3.317 4.695h.01c2.205.386 4.313-1.107 4.69-3.321a4.07 4.07 0 0 0-3.327-4.696ZM101.387.89a4.07 4.07 0 1 0 1.025 8.076 4.079 4.079 0 0 0 3.52-4.557 4.064 4.064 0 0 0-4.545-3.52Zm16.847-.88a4.063 4.063 0 0 0-4.159 3.974 4.07 4.07 0 0 0 3.985 4.162 4.077 4.077 0 0 0 4.158-3.985 4.067 4.067 0 0 0-3.984-4.152Z" fill="white"/>
</svg>